<?xml version="1.0" encoding="UTF-8"?>
<svg version="1.1" xmlns="http://www.w3.org/2000/svg" width="79" height="67">
<path d="M0 0 C26.07 0 52.14 0 79 0 C79 22.11 79 44.22 79 67 C52.93 67 26.86 67 0 67 C0 44.89 0 22.78 0 0 Z " fill="#FDFDFE" transform="translate(0,0)"/>
<path d="M0 0 C2.64 0 5.28 0 8 0 C7.67 1.98 7.34 3.96 7 6 C13.6 6 20.2 6 27 6 C30.03262365 15.09787096 30.56383764 22.61697414 29 32 C32.96 32 36.92 32 41 32 C41 32.33 41 32.66 41 33 C37.04 33 33.08 33 29 33 C29 33.66 29 34.32 29 35 C32.96 35 36.92 35 41 35 C41 35.33 41 35.66 41 36 C37.04 36 33.08 36 29 36 C29 36.99 29 37.98 29 39 C33.29 39 37.58 39 42 39 C42 39.33 42 39.66 42 40 C21.54 40 1.08 40 -20 40 C-20 37.36 -20 34.72 -20 32 C-17.36 32 -14.72 32 -12 32 C-12 29.36 -12 26.72 -12 24 C-12.99 23.67 -13.98 23.34 -15 23 C-14.69191406 22.46761719 -14.38382813 21.93523438 -14.06640625 21.38671875 C-12.79000097 18.53000217 -12.38583548 15.90563803 -11.9375 12.8125 C-11.101983 7.101983 -11.101983 7.101983 -10 6 C-8.14712498 5.92773498 -6.29166122 5.9161878 -4.4375 5.9375 C-3.42558594 5.94652344 -2.41367187 5.95554687 -1.37109375 5.96484375 C-0.19740234 5.98224609 -0.19740234 5.98224609 1 6 C0.67 4.02 0.34 2.04 0 0 Z " fill="#368286" transform="translate(27,9)"/>
<path d="M0 0 C11.88 0 23.76 0 36 0 C38.25 10.125 38.25 10.125 38 14 C21.64470986 15.78126922 21.64470986 15.78126922 16.35546875 11.55078125 C13.60478915 8.92444567 11.25391739 6.05817866 9 3 C6.77382267 4.05354071 5.12920379 4.87079621 3.375 6.625 C2.92125 7.07875 2.4675 7.5325 2 8 C1.34 8 0.68 8 0 8 C0 5.36 0 2.72 0 0 Z " fill="#FAFCFC" transform="translate(17,17)"/>
<path d="M0 0 C3.29653809 1.41703706 5.99439817 3.08163869 8.171875 5.93359375 C8.88112321 8.75686386 8.74658147 11.35859744 8.546875 14.24609375 C8.423125 16.78296875 8.299375 19.31984375 8.171875 21.93359375 C2.891875 21.93359375 -2.388125 21.93359375 -7.828125 21.93359375 C-8.54339162 7.38983918 -8.54339162 7.38983918 -6.6328125 3.5 C-4.67120068 1.44474339 -2.95995087 -0.10751958 0 0 Z " fill="#F3F7F7" transform="translate(24.828125,25.06640625)"/>
<path d="M0 0 C6.6 0 13.2 0 20 0 C19.67 0.99 19.34 1.98 19 3 C18.77674186 5.05893621 18.59294241 7.12233653 18.4375 9.1875 C18.293125 11.105625 18.14875 13.02375 18 15 C11.4 15 4.8 15 -2 15 C-2 10.71 -2 6.42 -2 2 C-1.34 2 -0.68 2 0 2 C0 1.34 0 0.68 0 0 Z " fill="#56969A" transform="translate(36,32)"/>
<path d="M0 0 C0.99 0.33 1.98 0.66 3 1 C3 1.66 3 2.32 3 3 C2.34 3 1.68 3 1 3 C1 7.29 1 11.58 1 16 C7.6 16 14.2 16 21 16 C21 12.04 21 8.08 21 4 C21.66 3.67 22.32 3.34 23 3 C23 5.31 23 7.62 23 10 C26.96 10 30.92 10 35 10 C35 10.33 35 10.66 35 11 C31.04 11 27.08 11 23 11 C23 11.66 23 12.32 23 13 C26.96 13 30.92 13 35 13 C35 13.33 35 13.66 35 14 C31.04 14 27.08 14 23 14 C23 14.99 23 15.98 23 17 C27.29 17 31.58 17 36 17 C36 17.33 36 17.66 36 18 C18.84 18 1.68 18 -16 18 C-15.67 17.34 -15.34 16.68 -15 16 C-10.05 16 -5.1 16 0 16 C0 10.72 0 5.44 0 0 Z " fill="#3F888C" transform="translate(33,31)"/>
<path d="M0 0 C1.51400391 0.01740234 1.51400391 0.01740234 3.05859375 0.03515625 C4.07050781 0.04417969 5.08242188 0.05320312 6.125 0.0625 C7.29869141 0.07990234 7.29869141 0.07990234 8.49609375 0.09765625 C8.49609375 0.42765625 8.49609375 0.75765625 8.49609375 1.09765625 C5.19609375 1.42765625 1.89609375 1.75765625 -1.50390625 2.09765625 C-1.55289062 2.85691406 -1.601875 3.61617187 -1.65234375 4.3984375 C-1.72710937 5.39230469 -1.801875 6.38617188 -1.87890625 7.41015625 C-1.94851562 8.39628906 -2.018125 9.38242187 -2.08984375 10.3984375 C-2.50390625 13.09765625 -2.50390625 13.09765625 -4.50390625 16.09765625 C-4.17390625 16.09765625 -3.84390625 16.09765625 -3.50390625 16.09765625 C-3.50390625 21.37765625 -3.50390625 26.65765625 -3.50390625 32.09765625 C-2.84390625 32.42765625 -2.18390625 32.75765625 -1.50390625 33.09765625 C-2.50390625 34.09765625 -2.50390625 34.09765625 -4.7890625 34.1953125 C-6.16384766 34.17791016 -6.16384766 34.17791016 -7.56640625 34.16015625 C-8.48550781 34.15113281 -9.40460937 34.14210937 -10.3515625 34.1328125 C-11.06183594 34.12121094 -11.77210937 34.10960937 -12.50390625 34.09765625 C-12.50390625 31.45765625 -12.50390625 28.81765625 -12.50390625 26.09765625 C-9.86390625 26.09765625 -7.22390625 26.09765625 -4.50390625 26.09765625 C-4.50390625 23.45765625 -4.50390625 20.81765625 -4.50390625 18.09765625 C-5.49390625 17.76765625 -6.48390625 17.43765625 -7.50390625 17.09765625 C-7.19582031 16.56527344 -6.88773438 16.03289063 -6.5703125 15.484375 C-5.29390722 12.62765842 -4.88974173 10.00329428 -4.44140625 6.91015625 C-3.45005505 0.13455753 -3.45005505 0.13455753 0 0 Z " fill="#348185" transform="translate(19.50390625,14.90234375)"/>
<path d="M0 0 C3.63 0 7.26 0 11 0 C11 3.63 11 7.26 11 11 C7.37 11 3.74 11 0 11 C0 7.37 0 3.74 0 0 Z " fill="#0F6A6F" transform="translate(19,34)"/>
<path d="M0 0 C0.66 0 1.32 0 2 0 C2 2.97 2 5.94 2 9 C6.95 9 11.9 9 17 9 C17 7.02 17 5.04 17 3 C12.38 3.33 7.76 3.66 3 4 C3 3.34 3 2.68 3 2 C7.62 2 12.24 2 17 2 C17 1.34 17 0.68 17 0 C17.66 0 18.32 0 19 0 C19 3.96 19 7.92 19 12 C12.73 12 6.46 12 0 12 C0 8.04 0 4.08 0 0 Z " fill="#EEF4F5" transform="translate(35,35)"/>
<path d="M0 0 C3.45201639 1.47721422 5.64961936 3.43794001 8.25 6.125 C8.95640625 6.84945313 9.6628125 7.57390625 10.390625 8.3203125 C11.18726563 9.15175781 11.18726563 9.15175781 12 10 C11.01 10.495 11.01 10.495 10 11 C7.40721088 9.67036455 5.38511451 8.43132825 3.4375 6.25 C2.0735283 4.7777623 2.0735283 4.7777623 0.0625 5.0625 C-2.74780847 6.33991294 -4.08413569 7.54566466 -6 10 C-6.44888571 12.86596259 -6.69425198 15.3815111 -6.75 18.25 C-6.79447266 19.36761719 -6.79447266 19.36761719 -6.83984375 20.5078125 C-6.9102343 22.33796672 -6.95741832 24.16898769 -7 26 C-7.33 26 -7.66 26 -8 26 C-8.16789126 23.56257869 -8.33436133 21.12507454 -8.5 18.6875 C-8.54769531 17.99720703 -8.59539063 17.30691406 -8.64453125 16.59570312 C-9.19896941 8.39793883 -9.19896941 8.39793883 -8 6 C-7.64830932 4.67139075 -7.31229724 3.33841672 -7 2 C-6.67 2.66 -6.34 3.32 -6 4 C-3.53199953 2.84826645 -1.95216435 1.95216435 0 0 Z " fill="#71A7AA" transform="translate(24,21)"/>
<path d="M0 0 C6.6 0 13.2 0 20 0 C19.67 0.99 19.34 1.98 19 3 C18.01 3 17.02 3 16 3 C15.67 3.66 15.34 4.32 15 5 C15 4.34 15 3.68 15 3 C9.72 3 4.44 3 -1 3 C-1 6.96 -1 10.92 -1 15 C-1.33 15 -1.66 15 -2 15 C-2 10.71 -2 6.42 -2 2 C-1.34 2 -0.68 2 0 2 C0 1.34 0 0.68 0 0 Z " fill="#96BEC0" transform="translate(36,32)"/>
<path d="M0 0 C0.99 0.33 1.98 0.66 3 1 C3 1.66 3 2.32 3 3 C2.34 3 1.68 3 1 3 C1.33 7.29 1.66 11.58 2 16 C8.27 16.33 14.54 16.66 21 17 C21 17.33 21 17.66 21 18 C8.79 18 -3.42 18 -16 18 C-15.67 17.34 -15.34 16.68 -15 16 C-10.05 16 -5.1 16 0 16 C0 10.72 0 5.44 0 0 Z " fill="#2D7D81" transform="translate(33,31)"/>
<path d="M0 0 C0 2.31 0 4.62 0 7 C-4.29 7 -8.58 7 -13 7 C-13 5.02 -13 3.04 -13 1 C-11.02087544 0.83283412 -9.04169915 0.66628044 -7.0625 0.5 C-5.40927734 0.36078125 -5.40927734 0.36078125 -3.72265625 0.21875 C-1 0 -1 0 0 0 Z " fill="#ADCCCE" transform="translate(69,41)"/>
<path d="M0 0 C2.475 0.495 2.475 0.495 5 1 C5 3.64 5 6.28 5 9 C7.97 9.495 7.97 9.495 11 10 C11 10.33 11 10.66 11 11 C7.37 11 3.74 11 0 11 C0 7.37 0 3.74 0 0 Z " fill="#5A989C" transform="translate(19,34)"/>
<path d="M0 0 C1.65 0 3.3 0 5 0 C5 0.99 5 1.98 5 3 C11.6 3 18.2 3 25 3 C25 3.33 25 3.66 25 4 C13.45 4 1.9 4 -10 4 C-10 3.67 -10 3.34 -10 3 C-6.7 3 -3.4 3 0 3 C0 2.01 0 1.02 0 0 Z " fill="#7DAFB1" transform="translate(28,13)"/>
<path d="M0 0 C2.64 0 5.28 0 8 0 C6.28032649 3.02990095 4.70761694 5.76327296 2 8 C1.34 8 0.68 8 0 8 C0 5.36 0 2.72 0 0 Z " fill="#EFF5F5" transform="translate(17,17)"/>
<path d="M0 0 C2.31 0 4.62 0 7 0 C7 0.99 7 1.98 7 3 C7.66 3.33 8.32 3.66 9 4 C5.7 4 2.4 4 -1 4 C-0.67 2.68 -0.34 1.36 0 0 Z " fill="#7FB0B2" transform="translate(8,45)"/>
<path d="M0 0 C1.32 0 2.64 0 4 0 C4 2.64 4 5.28 4 8 C2.68 8 1.36 8 0 8 C0 5.36 0 2.72 0 0 Z " fill="#E4EEEF" transform="translate(25,35)"/>
<path d="M0 0 C0.99 0 1.98 0 3 0 C3 2.64 3 5.28 3 8 C2.01 8 1.02 8 0 8 C0 5.36 0 2.72 0 0 Z " fill="#FFFFFF" transform="translate(21,35)"/>
<path d="M0 0 C1.32 1.32 2.64 2.64 4 4 C1.03 6.475 1.03 6.475 -2 9 C-1.505 7.88625 -1.505 7.88625 -1 6.75 C0.22782871 3.86116688 0.22782871 3.86116688 0 0 Z " fill="#9CC2C3" transform="translate(16,23)"/>
</svg>
